<svg width="1050" height="920" viewBox="0 0 1050 920" fill="none" xmlns="http://www.w3.org/2000/svg">
<g clip-path="url(#clip0_181_492)">
<path d="M121.71 174.162C123.058 144.766 161.167 122.928 189.861 137.255C209.341 145.033 216.037 164.932 217.63 182.86C250.975 181.214 279.538 207.856 273.334 239.008C297.511 240.691 322.972 255.185 324.183 279.553C324.771 312.854 319.578 346.091 313.889 378.932C315.191 394.143 285.606 395.481 285.651 379.998C288.119 346.51 297.219 313.282 295.196 279.521C292.9 268.67 280.121 267.787 270.616 266.329C266.211 297.842 266.771 329.877 261.532 361.265C260.435 373.873 235.808 373.418 234.391 360.466C235.472 315.77 242.257 271.388 243.767 226.709C246.44 212.753 226.76 211.494 216.58 209.649C215.493 261.739 218.013 313.941 215.991 365.896C215.831 379.543 189.57 380.39 188.737 366.513C186.131 304.385 188.438 242.071 187.05 179.876C188.222 170.979 181.481 163.929 173.945 159.564C159.995 156.956 149.815 168.983 150.112 180.759C143.617 258.059 136.494 335.361 130.924 412.693C130.004 480.183 143.121 554.342 197.071 604.051C245.782 651.271 304.794 696.791 318.07 764.449C321.217 776.356 301.824 783.647 293.912 774.647C281.47 750.572 275.471 723.166 256.504 702.239C217.545 656.717 162.967 622.527 134.609 569.552C105.754 512.683 97.8306 448.153 103.738 385.984C109.936 315.383 115.511 244.763 121.71 174.162Z" fill="#3B7738"/>
<path d="M877.087 138.326C904.279 122.766 943.062 141.578 946.953 170.174C951.528 208.842 953.403 247.741 957.127 286.493C960.988 352.144 974.384 418.363 962.496 484.024C955.258 524.22 942.519 564.843 915.877 598.029C885.13 637.544 841.788 666.872 810.037 705.609C793.032 726.047 787.416 751.762 775.728 774.562C767.685 783.715 748.587 776.706 751.101 764.861C755.779 744.325 765.039 724.855 775.351 706.226C810.62 650.078 875.202 615.252 908.592 557.953C935.516 504.712 942.268 444.347 936.653 386.411C930.322 316.386 925.347 246.284 918.475 176.426C918.436 164.126 909.626 155.241 894.681 156.871C885.175 159.631 881.537 170.629 882.325 179.796C881.492 237.507 882.121 295.275 881.612 353.022C881.828 362.995 881.405 377.938 866.118 376.899C852.082 376.361 852.288 362.457 852.551 353.106C852.459 305.311 853.253 257.594 852.756 209.81C842.371 211.335 822.892 212.831 825.571 227.016C827.205 269.125 832.848 311.129 835.002 353.372C839.474 367.25 820.126 375.947 809.41 366.633C801.028 333.866 804.13 299.592 798.63 266.328C789.05 267.682 776.139 268.936 774.087 279.855C772.157 313.47 781.342 346.588 783.772 379.935C784.222 393.301 759.172 395.213 756.453 382.915C749.711 348.767 744.679 313.857 745.194 279.092C746.61 255.064 771.866 240.502 795.957 239.043C789.706 207.776 818.326 181.213 851.659 182.75C853.425 165.653 859.115 146.758 877.087 138.326Z" fill="#3B7738"/>
<path d="M206.028 390.583C226.092 380.281 253.689 380.281 270.741 395.831C303.029 426.069 329.809 461.1 362.549 491.034C397.11 521.005 445.371 544.265 456.545 590.456C468.827 646.091 477.077 702.505 489.975 758.077C494.42 767.323 488.672 778.739 476.9 778.697C465.302 778.818 462.92 767.778 461.035 759.615C448.221 706.577 440.761 652.462 429.078 599.22C422.367 566.919 390.907 548.253 365.611 528.516C320.669 496.747 290.307 451.602 250.587 414.993C238.202 403.08 206.113 412.85 214.231 431.865C238.904 480.182 273.592 523.843 299.636 571.586C304.216 585.892 279.544 593.586 273.255 580.216C245.908 539.101 219.933 497.056 193.541 455.386C179.471 434.97 181.269 403.269 206.028 390.583Z" fill="#3B7738"/>
<path d="M805.673 390.776C830.883 375.106 872.694 384.713 882.703 412.504C889.484 431.933 879.31 451.325 868.426 467.539C843.754 504.901 821.001 543.387 795.831 580.409C789.5 593.44 765.674 585.923 769.45 571.899C795.493 524.303 829.758 480.721 854.767 432.671C863.937 413.696 832.186 403.008 819.201 414.58C779.247 451.059 748.958 496.324 704.136 528.317C679.756 547.453 649.399 565.073 641.224 595.661C627.535 653.684 621.247 713.094 604.954 770.58C601.064 784.483 573.877 778.247 578.482 764.474C590.752 706.498 600.35 648.008 612.865 590.068C621.754 552.858 656.591 529.708 686.673 506.976C732.872 474.141 761.989 425.723 805.673 390.776Z" fill="#3B7738"/>
<mask id="mask0_181_492" style="mask-type:luminance" maskUnits="userSpaceOnUse" x="-11" y="-86" width="1051" height="921">
<path d="M-10.5037 834.142H1039.53V-85.5282H-10.5037V834.142Z" fill="white"/>
</mask>
<g mask="url(#mask0_181_492)">
<path d="M605.769 240.775L605.766 240.776C600.554 241.456 596.545 245.248 595.933 249.962C595.325 254.67 598.247 259.2 603.125 260.979C605.483 261.821 606.938 263.159 607.831 265.269L607.832 265.272C609.524 269.353 608.637 275.477 605.708 280.861L605.704 280.868L605.7 280.874L605.689 280.894C605.476 281.26 603.771 284.198 600.421 286.501C596.975 288.871 591.813 290.552 584.831 288.145L584.829 288.145C579.79 286.393 574.101 288.064 571.128 292.129L571.127 292.13C569.144 294.821 568.691 298.092 569.662 301.033L569.706 301.166L569.674 301.303C569.135 303.616 566.755 309.224 559.639 311.396C557.359 312.093 553.776 312.415 550.177 312.047C546.585 311.68 542.876 310.616 540.415 308.454L540.246 308.306L540.245 308.082L540.038 277.719L540.034 277.03L540.69 277.239C544.68 278.509 548.415 279.025 551.758 279.025C553.962 279.025 556.013 278.828 557.842 278.509L557.843 278.509C571.472 276.162 581.638 266.417 585.637 257.825C588.108 252.507 585.435 246.324 579.551 244.024C573.642 241.716 566.856 244.245 564.361 249.586C563.782 250.831 562.42 252.649 560.555 254.267C558.687 255.889 556.267 257.351 553.552 257.818C549.377 258.541 544.82 256.516 540.027 252.198L539.863 252.05L539.861 251.83L539.484 197.475L539.484 197.468L539.758 157.18L539.76 156.846L540.069 156.72C541.891 155.979 544.295 155.609 546.79 155.641C549.289 155.673 551.918 156.109 554.193 157.011L554.195 157.012C558.104 158.579 560.034 163.081 559.901 169.398L559.901 169.399C559.82 173.069 561.857 176.542 565.299 178.518C568.768 180.488 573.098 180.667 576.71 178.971L576.711 178.97C587.743 173.828 594.352 179.972 594.612 180.235C596.615 182.298 598.14 185.173 598.383 188.57C598.626 191.973 597.581 195.854 594.523 199.916L594.523 199.916C592.219 202.974 591.862 206.921 593.575 210.28L593.575 210.281C595.289 213.659 598.827 215.977 602.924 216.334L602.926 216.334C607.514 216.751 611.414 220.831 612.296 225.93C613.093 230.455 612.083 235.171 609.606 238.251L609.604 238.253C609.275 238.658 608.765 239.222 608.121 239.716C607.48 240.208 606.678 240.652 605.769 240.775ZM486.192 301.302L486.161 301.166L486.205 301.033C487.177 298.092 486.717 294.821 484.74 292.13L484.739 292.129C481.759 288.063 476.076 286.393 471.03 288.145L471.03 288.145C464.048 290.557 458.887 288.877 455.442 286.505C452.088 284.196 450.383 281.249 450.177 280.891C450.173 280.884 450.169 280.878 450.166 280.873L450.166 280.873L450.16 280.861C447.223 275.478 446.326 269.353 448.028 265.271L448.029 265.269C448.924 263.158 450.385 261.821 452.742 260.979C457.62 259.199 460.54 254.67 459.929 249.962L459.929 249.962C459.321 245.249 455.307 241.456 450.094 240.776L450.091 240.775C449.185 240.652 448.384 240.207 447.744 239.716C447.102 239.222 446.591 238.658 446.263 238.253L446.262 238.251C443.784 235.171 442.774 230.455 443.553 225.941L443.553 225.94C444.446 220.832 448.353 216.751 452.936 216.334L452.937 216.334C457.035 215.977 460.577 213.659 462.292 210.281L462.293 210.28C464.003 206.921 463.642 202.975 461.344 199.916C458.283 195.854 457.238 191.973 457.482 188.57C457.726 185.173 459.251 182.298 461.253 180.235L461.254 180.235C461.598 179.891 468.192 173.868 479.15 178.97L479.151 178.97C482.779 180.668 487.109 180.488 490.567 178.519C494.004 176.542 496.047 173.069 495.959 169.4L495.959 169.398C495.826 163.081 497.763 158.58 501.654 157.012L501.657 157.011C503.94 156.109 506.573 155.673 509.073 155.641C511.569 155.609 513.972 155.979 515.791 156.72L516.1 156.846L516.102 157.179L516.383 197.468L516.383 197.475L516.325 205.437L516.324 205.572L516.254 205.689C516.172 205.827 516.098 205.941 516.031 206.045C515.924 206.211 515.832 206.353 515.747 206.528C513.019 212.595 509.469 216.199 505.146 216.979L505.145 216.979C502.45 217.463 499.615 216.936 497.224 216.077C494.837 215.219 492.832 214.008 491.791 213.056C487.276 208.925 479.937 208.924 475.414 213.056C470.941 217.165 470.941 223.812 475.432 227.921C481.458 233.434 491.781 238.238 502.955 238.238C505.177 238.238 507.425 238.043 509.68 237.63L509.68 237.63C511.477 237.301 513.42 236.76 515.452 236.035L516.125 235.795L516.12 236.51L515.623 308.082L515.621 308.306L515.453 308.454C512.99 310.616 509.28 311.68 505.687 312.047C502.087 312.415 498.505 312.093 496.228 311.396C489.112 309.224 486.725 303.616 486.192 301.302ZM626.817 252.903L626.599 252.576L626.866 252.287C627.336 251.779 627.787 251.25 628.234 250.706C634.381 243.079 636.892 232.857 635.122 222.646C633.49 213.238 627.859 205.267 620.06 200.373L619.733 200.168L619.849 199.799C623.583 187.964 620.894 175.529 611.914 166.281L611.914 166.281C607.175 161.396 595.954 154.711 581.416 155.992L581.032 156.026L580.902 155.663C576.845 144.359 567.942 139.505 563.432 137.711C552.636 133.419 538.677 133.35 528.156 138.666L527.931 138.78L527.705 138.666C517.191 133.351 503.216 133.434 492.418 137.711C487.924 139.504 479.021 144.359 474.965 155.679L474.835 156.044L474.449 156.008C459.895 154.67 448.704 161.395 443.953 166.281C434.972 175.529 432.277 187.964 436.011 199.799L436.127 200.168L435.8 200.373C428.003 205.267 422.371 213.238 420.728 222.646C418.968 232.858 421.487 243.079 427.633 250.706C428.083 251.253 428.524 251.78 428.997 252.284L429.269 252.574L429.048 252.905C428.027 254.429 427.152 256.062 426.433 257.799L426.433 257.8C422.463 267.319 423.572 279.443 429.484 290.245L429.484 290.245C435.644 301.519 448.743 310.629 464.792 310.375L465.128 310.37L465.26 310.678C467.884 316.826 474.27 326.896 488.899 331.367C492.839 332.569 497.657 333.284 502.778 333.284C511.174 333.284 520.275 331.293 527.657 326.472L527.931 326.293L528.204 326.472C535.593 331.293 544.688 333.295 553.089 333.295C558.202 333.295 563.025 332.569 566.98 331.367C581.597 326.897 587.982 316.826 590.607 310.678L590.737 310.375H591.067H591.386C607.199 310.375 620.27 301.448 626.383 290.245C632.278 279.443 633.397 267.319 629.433 257.8L629.433 257.799C628.714 256.063 627.834 254.43 626.817 252.903Z" fill="#FBA7D4" stroke="white"/>
<path d="M650.952 339.232C650.952 344.782 646.022 349.293 639.955 349.293H414.244C408.17 349.293 403.24 344.782 403.24 339.232V132.711C403.24 127.17 408.17 122.648 414.244 122.648H639.955C646.022 122.648 650.952 127.17 650.952 132.711V339.232ZM727.205 294.113C720.795 286.188 708.587 284.505 699.926 290.349C698.071 291.609 696.596 293.134 695.38 294.792H675.065V246.997H701.595C708.251 246.997 713.643 242.058 713.643 235.974C713.643 229.884 708.251 224.945 701.595 224.945H675.065V177.15H701.595C708.251 177.15 713.643 172.21 713.643 166.121C713.643 160.021 708.251 155.082 701.595 155.082H675.065V132.711C675.065 114.997 659.316 100.58 639.955 100.58H615.5V74.5558C615.5 68.4662 610.089 63.5327 603.435 63.5327C596.785 63.5327 591.386 68.4662 591.386 74.5558V100.58H539.15V84.8217C547.656 78.9461 549.444 67.8814 543.097 60.0148C536.688 52.0746 524.479 50.3913 515.82 56.2508C507.148 62.0996 505.308 73.2753 511.712 81.2102C512.677 82.4118 513.831 83.4314 515.048 84.34V100.58H462.807V74.5558C462.807 68.4662 457.413 63.5327 450.758 63.5327C444.092 63.5327 438.693 68.4662 438.693 74.5558V100.58H414.244C394.877 100.58 379.128 114.997 379.128 132.711V155.082H362.429C355.933 147.534 344.047 145.987 335.545 151.726C326.873 157.586 325.035 168.76 331.437 176.695C337.831 184.614 350.038 186.303 358.71 180.454C360.133 179.492 361.298 178.352 362.337 177.15H379.128V224.945H350.638C343.984 224.945 338.59 229.884 338.59 235.974C338.59 242.058 343.984 246.997 350.638 246.997H379.128V294.792H350.638C343.984 294.792 338.59 299.731 338.59 305.821C338.59 311.921 343.984 316.86 350.638 316.86H379.128V339.232C379.128 356.951 394.877 371.361 414.244 371.361H438.693V387.47C438.618 387.523 438.545 387.549 438.476 387.59C429.798 393.45 427.958 404.625 434.352 412.544C440.755 420.478 452.963 422.167 461.641 416.307C470.296 410.458 472.14 399.284 465.748 391.349C464.869 390.277 463.874 389.331 462.807 388.484V371.361H515.048V396.246C515.048 402.352 520.441 407.286 527.096 407.286C533.751 407.286 539.15 402.352 539.15 396.246V371.361H591.386V396.246C591.386 402.352 596.785 407.286 603.435 407.286C610.089 407.286 615.5 402.352 615.5 396.246V371.361H639.955C659.316 371.361 675.065 356.951 675.065 339.232V316.86H697.339C704.005 323.373 715.048 324.502 723.091 319.065C731.752 313.216 733.592 302.047 727.205 294.113Z" fill="#4AA1B2"/>
</g>
</g>
<defs>
<clipPath id="clip0_181_492">
<rect width="1049.96" height="919.657" fill="white" transform="translate(-0.00415039)"/>
</clipPath>
</defs>
</svg>
