<svg width="1024" height="386" viewBox="0 0 1024 386" fill="none" xmlns="http://www.w3.org/2000/svg">
<mask id="mask0_173_423" style="mask-type:luminance" maskUnits="userSpaceOnUse" x="0" y="0" width="1024" height="386">
<path d="M0 386H1023.02V-7.95317e-07H0V386Z" fill="white"/>
</mask>
<g mask="url(#mask0_173_423)">
<path d="M208.805 233.084C217.005 233.084 224.36 231.5 230.87 228.275C237.448 225.009 242.603 220.61 246.313 215.091C249.988 209.518 251.856 203.228 251.856 196.276C251.856 189.322 249.988 183.089 246.313 177.567C242.603 171.997 237.448 167.599 230.87 164.38C224.36 161.107 217.005 159.473 208.805 159.473C200.367 159.473 192.919 161.107 186.494 164.38C180.04 167.599 174.982 171.997 171.297 177.567C167.593 183.089 165.754 189.322 165.754 196.276C165.754 203.228 167.593 209.518 171.297 215.091C174.982 220.61 180.04 225.009 186.494 228.275C192.919 231.5 200.367 233.084 208.805 233.084ZM212.303 125.427C228.127 125.427 242.272 128.494 254.752 134.625C267.292 140.759 277.182 149.195 284.417 159.883C291.65 170.593 295.275 182.729 295.275 196.276C295.275 209.85 291.65 221.992 284.417 232.674C277.182 243.384 267.292 251.848 254.752 258.03C242.272 264.214 228.127 267.336 212.303 267.336C204.101 267.336 196.265 266.338 188.786 264.373C181.365 262.4 174.676 259.665 168.647 256.189V311.805H125.833V129.207H154.298L161.652 141.378C168.222 136.418 175.822 132.533 184.447 129.718C193.038 126.859 202.325 125.427 212.303 125.427Z" fill="#3B7738"/>
<path d="M390.994 232.777C399.196 232.777 406.548 231.215 413.061 228.076C419.639 224.954 424.794 220.612 428.502 215.092C432.179 209.516 434.047 203.13 434.047 195.969C434.047 189.017 432.179 182.782 428.502 177.26C424.794 171.74 419.639 167.394 413.061 164.176C406.548 160.9 399.196 159.266 390.994 159.266C382.555 159.266 375.11 160.9 368.682 164.176C362.232 167.394 357.17 171.74 353.487 177.26C349.785 182.782 347.942 189.017 347.942 195.969C347.942 203.13 349.785 209.441 353.487 214.884C357.17 220.353 362.232 224.701 368.682 227.97C375.11 231.193 382.555 232.777 390.994 232.777ZM444.056 128.899H476.011V263.144H442.248L438.749 251.181C431.907 256.163 424.157 260.048 415.478 262.834C406.794 265.62 397.447 267.029 387.497 267.029C371.638 267.029 357.467 263.907 344.928 257.725C332.447 251.541 322.617 243.105 315.384 232.467C308.149 221.785 304.526 209.621 304.526 195.969C304.526 182.631 308.149 170.588 315.384 159.878C322.617 149.196 332.447 140.761 344.928 134.627C357.467 128.489 371.638 125.424 387.497 125.424C397.625 125.424 407.065 126.905 415.835 129.821C424.672 132.686 432.51 136.723 439.352 141.885" fill="#3B7738"/>
<path d="M583.486 231.039H602.782V263.348H572.636C555.179 263.348 541.428 259.103 531.39 250.567C521.322 242.057 516.315 230.326 516.315 215.397V158.242H487.609V150.576L550.324 94.1384H558.279V129.207H601.936V158.242H559.128V210.692C559.128 217.183 561.208 222.194 565.395 225.719C569.553 229.275 575.591 231.039 583.486 231.039Z" fill="#3B7738"/>
<path d="M618.295 263.348H663.639V224.596H618.295V263.348Z" fill="#3B7738"/>
<path d="M690.607 129.207H733.42V263.344H690.607V129.207ZM690.607 77.4741H733.42V111.318H690.607V77.4741Z" fill="#3B7738"/>
<path d="M838.915 233.084C851.217 233.084 861.259 229.686 869.07 222.863C876.84 216.06 880.768 207.193 880.768 196.276C880.768 185.391 876.84 176.519 869.07 169.694C861.259 162.9 851.217 159.473 838.915 159.473C826.375 159.473 816.18 162.9 808.409 169.694C800.599 176.519 796.711 185.391 796.711 196.276C796.711 207.193 800.599 216.06 808.409 222.863C816.18 229.686 826.375 233.084 838.915 233.084ZM838.915 267.027C822.433 267.027 807.747 263.912 794.902 257.723C782.031 251.539 771.869 243.103 764.39 232.472C756.977 221.784 753.294 209.72 753.294 196.276C753.294 182.729 756.977 170.593 764.39 159.883C771.869 149.195 782.031 140.759 794.902 134.625C807.747 128.494 822.433 125.427 838.915 125.427C855.079 125.427 869.58 128.494 882.458 134.625C895.389 140.759 905.551 149.195 912.97 159.883C920.442 170.593 924.185 182.729 924.185 196.276C924.185 209.72 920.442 221.784 912.97 232.472C905.551 243.103 895.389 251.539 882.458 257.723C869.58 263.912 855.079 267.027 838.915 267.027Z" fill="#3B7738"/>
</g>
</svg>
