<svg width="1051" height="921" viewBox="0 0 1051 921" fill="none" xmlns="http://www.w3.org/2000/svg">
<path d="M132.71 260.162C134.058 230.766 172.167 208.928 200.861 223.255C220.341 231.033 227.037 250.932 228.63 268.86C261.975 267.214 290.538 293.856 284.334 325.008C308.511 326.691 333.972 341.185 335.183 365.553C335.771 398.854 330.578 432.091 324.889 464.932C326.191 480.143 296.606 481.481 296.651 465.998C299.119 432.51 308.219 399.282 306.196 365.521C303.9 354.67 291.121 353.787 281.616 352.329C277.211 383.842 277.771 415.877 272.532 447.265C271.436 459.872 246.808 459.418 245.391 446.466C246.472 401.77 253.257 357.388 254.767 312.709C257.44 298.753 237.76 297.494 227.58 295.649C226.493 347.739 229.013 399.941 226.991 451.896C226.831 465.543 200.57 466.39 199.737 452.513C197.131 390.385 199.438 328.071 198.05 265.876C199.222 256.979 192.481 249.929 184.945 245.564C170.995 242.956 160.815 254.983 161.112 266.759C154.617 344.059 147.494 421.361 141.924 498.693C141.004 566.182 154.121 640.342 208.071 690.051C256.782 737.271 315.794 782.791 329.07 850.449C332.217 862.356 312.824 869.647 304.912 860.647C292.47 836.572 286.471 809.166 267.504 788.239C228.545 742.717 173.967 708.527 145.609 655.552C116.754 598.683 108.831 534.153 114.738 471.984C120.936 401.383 126.511 330.763 132.71 260.162Z" fill="#3B7738"/>
<path d="M888.087 224.326C915.279 208.766 954.062 227.578 957.953 256.174C962.528 294.842 964.403 333.741 968.127 372.493C971.988 438.144 985.384 504.363 973.496 570.024C966.258 610.22 953.519 650.843 926.877 684.029C896.13 723.544 852.788 752.872 821.037 791.609C804.032 812.047 798.416 837.762 786.728 860.562C778.685 869.715 759.587 862.706 762.101 850.861C766.779 830.325 776.039 810.855 786.351 792.226C821.62 736.078 886.202 701.252 919.592 643.953C946.516 590.712 953.268 530.347 947.653 472.411C941.322 402.386 936.347 332.284 929.475 262.426C929.436 250.126 920.626 241.241 905.681 242.871C896.175 245.631 892.537 256.629 893.325 265.796C892.492 323.507 893.121 381.275 892.612 439.022C892.828 448.995 892.405 463.938 877.118 462.899C863.082 462.361 863.288 448.457 863.551 439.106C863.459 391.311 864.253 343.594 863.756 295.81C853.371 297.335 833.892 298.831 836.571 313.016C838.205 355.125 843.848 397.129 846.002 439.372C850.474 453.25 831.126 461.947 820.41 452.633C812.028 419.866 815.13 385.592 809.63 352.328C800.05 353.682 787.139 354.936 785.087 365.855C783.157 399.47 792.342 432.588 794.772 465.935C795.222 479.301 770.172 481.213 767.453 468.915C760.711 434.767 755.679 399.857 756.194 365.092C757.61 341.064 782.866 326.502 806.957 325.043C800.706 293.776 829.326 267.213 862.659 268.75C864.425 251.653 870.115 232.758 888.087 224.326Z" fill="#3B7738"/>
<path d="M217.028 476.583C237.092 466.281 264.689 466.281 281.741 481.831C314.029 512.069 340.809 547.1 373.549 577.034C408.11 607.005 456.371 630.265 467.545 676.456C479.827 732.091 488.077 788.505 500.975 844.077C505.42 853.323 499.672 864.739 487.9 864.697C476.302 864.818 473.92 853.778 472.035 845.615C459.221 792.577 451.761 738.462 440.078 685.22C433.367 652.919 401.907 634.253 376.611 614.516C331.669 582.747 301.307 537.602 261.587 500.993C249.202 489.08 217.113 498.85 225.231 517.865C249.904 566.182 284.592 609.843 310.636 657.586C315.216 671.892 290.544 679.586 284.255 666.216C256.908 625.101 230.933 583.056 204.541 541.386C190.471 520.97 192.269 489.269 217.028 476.583Z" fill="#3B7738"/>
<path d="M816.673 476.776C841.883 461.106 883.694 470.713 893.703 498.504C900.484 517.933 890.31 537.325 879.426 553.539C854.754 590.901 832.001 629.387 806.831 666.409C800.5 679.44 776.674 671.923 780.45 657.899C806.493 610.303 840.758 566.721 865.767 518.671C874.937 499.696 843.186 489.008 830.201 500.58C790.247 537.059 759.958 582.324 715.136 614.317C690.756 633.453 660.399 651.073 652.224 681.661C638.535 739.684 632.247 799.094 615.954 856.58C612.064 870.483 584.877 864.247 589.482 850.474C601.752 792.498 611.35 734.008 623.865 676.068C632.754 638.858 667.591 615.708 697.673 592.976C743.872 560.141 772.989 511.723 816.673 476.776Z" fill="#3B7738"/>
<mask id="mask0_193_515" style="mask-type:luminance" maskUnits="userSpaceOnUse" x="0" y="0" width="1051" height="921">
<path d="M0.496338 920.142H1050.53V0.471863H0.496338V920.142Z" fill="white"/>
</mask>
<g mask="url(#mask0_193_515)">
<mask id="path-6-inside-1_193_515" fill="white">
<path d="M620.216 323.938C619.587 324.713 618.286 326.066 616.702 326.28C611.292 326.986 607.082 330.932 606.437 335.898C605.796 340.864 608.882 345.599 613.955 347.45C616.194 348.248 617.537 349.493 618.37 351.464C619.982 355.352 619.159 361.311 616.269 366.622C615.988 367.102 609.625 378.372 595.994 373.672C590.761 371.854 584.837 373.579 581.725 377.834C579.645 380.656 579.165 384.096 580.188 387.19C579.673 389.395 577.383 394.815 570.493 396.918C566.088 398.265 556.439 398.202 551.745 394.078L551.538 363.716C555.578 365.001 559.364 365.525 562.758 365.525C564.991 365.525 567.071 365.325 568.928 365.001C582.735 362.624 593.029 352.761 597.09 344.036C599.696 338.428 596.856 331.952 590.733 329.558C584.603 327.164 577.524 329.772 574.908 335.375C573.823 337.707 569.659 342.432 564.466 343.326C560.519 344.009 556.114 342.108 551.361 337.826L550.984 283.471L551.258 243.183C554.743 241.766 560.592 241.724 565.009 243.476C568.62 244.924 570.533 249.136 570.401 255.388C570.316 259.256 572.463 262.893 576.052 264.952C579.661 267.002 584.162 267.19 587.922 265.423C598.777 260.364 605.181 266.506 605.254 266.583C609.116 270.562 611.115 277.655 605.124 285.615C602.706 288.824 602.329 292.975 604.129 296.507C605.928 300.052 609.625 302.462 613.881 302.832C618.199 303.224 621.952 307.093 622.803 312.016C623.581 316.427 622.587 320.99 620.216 323.938ZM507.374 396.918C500.485 394.815 498.187 389.395 497.68 387.19C498.702 384.096 498.216 380.656 496.143 377.834C493.023 373.579 487.105 371.854 481.866 373.672C468.237 378.382 461.878 367.102 461.598 366.622C458.701 361.311 457.868 355.352 459.49 351.464C460.325 349.493 461.673 348.248 463.912 347.45C468.985 345.599 472.07 340.864 471.425 335.898C470.784 330.932 466.568 326.986 461.158 326.28C459.582 326.066 458.279 324.713 457.651 323.938C455.281 320.99 454.286 316.427 455.045 312.026C455.908 307.093 459.668 303.224 463.981 302.832C468.236 302.462 471.938 300.052 473.738 296.507C475.537 292.975 475.154 288.824 472.744 285.615C466.745 277.655 468.751 270.562 472.612 266.583C472.669 266.521 479.073 260.364 489.939 265.423C493.715 267.19 498.216 267.002 501.816 264.952C505.397 262.893 507.551 259.256 507.459 255.388C507.327 249.136 509.248 244.924 512.841 243.476C517.273 241.724 523.123 241.766 526.602 243.183L526.883 283.471L526.825 291.433C526.648 291.73 526.443 292.007 526.294 292.316C523.593 298.327 520.141 301.75 516.057 302.487C510.899 303.413 505.088 300.48 503.129 298.687C498.423 294.381 490.79 294.381 486.077 298.687C481.387 302.994 481.387 309.983 486.094 314.29C492.207 319.882 502.649 324.738 513.955 324.738C516.206 324.738 518.484 324.54 520.77 324.121C522.598 323.787 524.568 323.238 526.62 322.506L526.123 394.078C521.427 398.202 511.772 398.265 507.374 396.918ZM638.233 338.626C638.713 338.108 639.171 337.571 639.621 337.022C645.866 329.276 648.407 318.906 646.614 308.561C644.957 299.007 639.239 290.915 631.326 285.95C635.114 273.943 632.383 261.315 623.272 251.933C618.445 246.956 607.082 240.198 592.373 241.494C588.247 230 579.193 225.066 574.617 223.247C563.706 218.909 549.596 218.831 538.931 224.219C528.271 218.831 514.144 218.925 503.233 223.247C498.673 225.066 489.619 230 485.495 241.51C470.767 240.156 459.433 246.956 454.595 251.933C445.482 261.315 442.746 273.943 446.534 285.95C438.622 290.915 432.904 299.007 431.235 308.561C429.453 318.906 432.002 329.276 438.245 337.022C438.697 337.571 439.147 338.108 439.633 338.626C438.593 340.178 437.702 341.84 436.971 343.608C432.932 353.293 434.075 365.577 440.045 376.485C446.288 387.911 459.553 397.132 475.8 396.875C478.462 403.11 484.94 413.319 499.753 417.845C503.746 419.063 508.613 419.784 513.778 419.784C522.244 419.784 531.447 417.777 538.931 412.89C546.42 417.777 555.617 419.795 564.089 419.795C569.247 419.795 574.12 419.063 578.125 417.845C592.927 413.319 599.404 403.11 602.067 396.875H602.386C618.388 396.875 631.624 387.843 637.822 376.485C643.774 365.577 644.928 353.293 640.895 343.608C640.164 341.84 639.267 340.178 638.233 338.626Z"/>
</mask>
<path d="M620.216 323.938C619.587 324.713 618.286 326.066 616.702 326.28C611.292 326.986 607.082 330.932 606.437 335.898C605.796 340.864 608.882 345.599 613.955 347.45C616.194 348.248 617.537 349.493 618.37 351.464C619.982 355.352 619.159 361.311 616.269 366.622C615.988 367.102 609.625 378.372 595.994 373.672C590.761 371.854 584.837 373.579 581.725 377.834C579.645 380.656 579.165 384.096 580.188 387.19C579.673 389.395 577.383 394.815 570.493 396.918C566.088 398.265 556.439 398.202 551.745 394.078L551.538 363.716C555.578 365.001 559.364 365.525 562.758 365.525C564.991 365.525 567.071 365.325 568.928 365.001C582.735 362.624 593.029 352.761 597.09 344.036C599.696 338.428 596.856 331.952 590.733 329.558C584.603 327.164 577.524 329.772 574.908 335.375C573.823 337.707 569.659 342.432 564.466 343.326C560.519 344.009 556.114 342.108 551.361 337.826L550.984 283.471L551.258 243.183C554.743 241.766 560.592 241.724 565.009 243.476C568.62 244.924 570.533 249.136 570.401 255.388C570.316 259.256 572.463 262.893 576.052 264.952C579.661 267.002 584.162 267.19 587.922 265.423C598.777 260.364 605.181 266.506 605.254 266.583C609.116 270.562 611.115 277.655 605.124 285.615C602.706 288.824 602.329 292.975 604.129 296.507C605.928 300.052 609.625 302.462 613.881 302.832C618.199 303.224 621.952 307.093 622.803 312.016C623.581 316.427 622.587 320.99 620.216 323.938ZM507.374 396.918C500.485 394.815 498.187 389.395 497.68 387.19C498.702 384.096 498.216 380.656 496.143 377.834C493.023 373.579 487.105 371.854 481.866 373.672C468.237 378.382 461.878 367.102 461.598 366.622C458.701 361.311 457.868 355.352 459.49 351.464C460.325 349.493 461.673 348.248 463.912 347.45C468.985 345.599 472.07 340.864 471.425 335.898C470.784 330.932 466.568 326.986 461.158 326.28C459.582 326.066 458.279 324.713 457.651 323.938C455.281 320.99 454.286 316.427 455.045 312.026C455.908 307.093 459.668 303.224 463.981 302.832C468.236 302.462 471.938 300.052 473.738 296.507C475.537 292.975 475.154 288.824 472.744 285.615C466.745 277.655 468.751 270.562 472.612 266.583C472.669 266.521 479.073 260.364 489.939 265.423C493.715 267.19 498.216 267.002 501.816 264.952C505.397 262.893 507.551 259.256 507.459 255.388C507.327 249.136 509.248 244.924 512.841 243.476C517.273 241.724 523.123 241.766 526.602 243.183L526.883 283.471L526.825 291.433C526.648 291.73 526.443 292.007 526.294 292.316C523.593 298.327 520.141 301.75 516.057 302.487C510.899 303.413 505.088 300.48 503.129 298.687C498.423 294.381 490.79 294.381 486.077 298.687C481.387 302.994 481.387 309.983 486.094 314.29C492.207 319.882 502.649 324.738 513.955 324.738C516.206 324.738 518.484 324.54 520.77 324.121C522.598 323.787 524.568 323.238 526.62 322.506L526.123 394.078C521.427 398.202 511.772 398.265 507.374 396.918ZM638.233 338.626C638.713 338.108 639.171 337.571 639.621 337.022C645.866 329.276 648.407 318.906 646.614 308.561C644.957 299.007 639.239 290.915 631.326 285.95C635.114 273.943 632.383 261.315 623.272 251.933C618.445 246.956 607.082 240.198 592.373 241.494C588.247 230 579.193 225.066 574.617 223.247C563.706 218.909 549.596 218.831 538.931 224.219C528.271 218.831 514.144 218.925 503.233 223.247C498.673 225.066 489.619 230 485.495 241.51C470.767 240.156 459.433 246.956 454.595 251.933C445.482 261.315 442.746 273.943 446.534 285.95C438.622 290.915 432.904 299.007 431.235 308.561C429.453 318.906 432.002 329.276 438.245 337.022C438.697 337.571 439.147 338.108 439.633 338.626C438.593 340.178 437.702 341.84 436.971 343.608C432.932 353.293 434.075 365.577 440.045 376.485C446.288 387.911 459.553 397.132 475.8 396.875C478.462 403.11 484.94 413.319 499.753 417.845C503.746 419.063 508.613 419.784 513.778 419.784C522.244 419.784 531.447 417.777 538.931 412.89C546.42 417.777 555.617 419.795 564.089 419.795C569.247 419.795 574.12 419.063 578.125 417.845C592.927 413.319 599.404 403.11 602.067 396.875H602.386C618.388 396.875 631.624 387.843 637.822 376.485C643.774 365.577 644.928 353.293 640.895 343.608C640.164 341.84 639.267 340.178 638.233 338.626Z" fill="#FBA7D4" stroke="white" stroke-width="2" mask="url(#path-6-inside-1_193_515)"/>
<path d="M661.952 425.232C661.952 430.782 657.022 435.293 650.955 435.293H425.244C419.17 435.293 414.24 430.782 414.24 425.232V218.711C414.24 213.17 419.17 208.648 425.244 208.648H650.955C657.022 208.648 661.952 213.17 661.952 218.711V425.232ZM738.205 380.113C731.795 372.188 719.587 370.505 710.926 376.349C709.071 377.609 707.596 379.134 706.38 380.792H686.065V332.997H712.595C719.251 332.997 724.643 328.058 724.643 321.974C724.643 315.884 719.251 310.945 712.595 310.945H686.065V263.15H712.595C719.251 263.15 724.643 258.21 724.643 252.121C724.643 246.021 719.251 241.082 712.595 241.082H686.065V218.711C686.065 200.997 670.316 186.58 650.955 186.58H626.5V160.556C626.5 154.466 621.089 149.533 614.435 149.533C607.785 149.533 602.386 154.466 602.386 160.556V186.58H550.15V170.822C558.656 164.946 560.444 153.881 554.097 146.015C547.688 138.075 535.479 136.391 526.82 142.251C518.148 148.1 516.308 159.275 522.712 167.21C523.677 168.412 524.831 169.431 526.048 170.34V186.58H473.807V160.556C473.807 154.466 468.413 149.533 461.758 149.533C455.092 149.533 449.693 154.466 449.693 160.556V186.58H425.244C405.877 186.58 390.128 200.997 390.128 218.711V241.082H373.429C366.933 233.534 355.047 231.987 346.545 237.726C337.873 243.586 336.035 254.76 342.437 262.695C348.831 270.614 361.038 272.303 369.71 266.454C371.133 265.492 372.298 264.352 373.337 263.15H390.128V310.945H361.638C354.984 310.945 349.59 315.884 349.59 321.974C349.59 328.058 354.984 332.997 361.638 332.997H390.128V380.792H361.638C354.984 380.792 349.59 385.731 349.59 391.821C349.59 397.921 354.984 402.86 361.638 402.86H390.128V425.232C390.128 442.951 405.877 457.361 425.244 457.361H449.693V473.47C449.618 473.523 449.545 473.549 449.476 473.59C440.798 479.45 438.958 490.625 445.352 498.544C451.755 506.478 463.963 508.167 472.641 502.307C481.296 496.458 483.14 485.284 476.748 477.349C475.869 476.277 474.874 475.331 473.807 474.484V457.361H526.048V482.246C526.048 488.352 531.441 493.286 538.096 493.286C544.751 493.286 550.15 488.352 550.15 482.246V457.361H602.386V482.246C602.386 488.352 607.785 493.286 614.435 493.286C621.089 493.286 626.5 488.352 626.5 482.246V457.361H650.955C670.316 457.361 686.065 442.951 686.065 425.232V402.86H708.339C715.005 409.373 726.048 410.502 734.091 405.065C742.752 399.216 744.592 388.047 738.205 380.113Z" fill="#4AA1B2"/>
</g>
</svg>
