<svg width="1201" height="1282" viewBox="0 0 1201 1282" fill="none" xmlns="http://www.w3.org/2000/svg">
<g clip-path="url(#clip0_173_440)">
<path d="M215.922 189.378C217.206 157.413 253.502 133.667 280.831 149.246C299.384 157.704 305.762 179.341 307.279 198.835C339.037 197.045 366.241 226.014 360.332 259.888C383.359 261.718 407.609 277.479 408.762 303.975C409.322 340.186 404.376 376.326 398.958 412.036C400.197 428.576 372.02 430.031 372.063 413.196C374.414 376.782 383.081 340.651 381.154 303.941C378.967 292.142 366.797 291.182 357.743 289.596C353.548 323.862 354.081 358.696 349.092 392.826C348.048 406.535 324.592 406.04 323.242 391.957C324.272 343.356 330.734 295.097 332.172 246.515C334.718 231.34 315.974 229.97 306.279 227.964C305.244 284.605 307.644 341.367 305.717 397.862C305.566 412.701 280.554 413.622 279.76 398.532C277.278 330.977 279.476 263.218 278.154 195.59C279.27 185.916 272.85 178.25 265.673 173.504C252.386 170.668 242.691 183.745 242.974 196.551C236.788 280.604 230.003 364.659 224.698 448.747C223.822 522.132 236.315 602.771 287.698 656.822C334.091 708.167 390.296 757.665 402.94 831.233C405.937 844.18 387.467 852.108 379.931 842.322C368.081 816.144 362.367 786.344 344.304 763.588C307.198 714.089 255.217 676.913 228.208 619.31C200.726 557.473 193.18 487.304 198.805 419.704C204.709 342.936 210.019 266.146 215.922 189.378Z" fill="#1B5E1F" fill-opacity="0.368627"/>
<path d="M935.358 150.411C961.257 133.491 998.194 153.947 1001.9 185.041C1006.26 227.088 1008.04 269.384 1011.59 311.522C1015.27 382.908 1028.03 454.913 1016.7 526.309C1009.81 570.017 997.677 614.189 972.302 650.274C943.019 693.242 901.739 725.132 871.498 767.253C855.302 789.476 849.954 817.438 838.822 842.23C831.161 852.182 812.972 844.561 815.366 831.681C819.822 809.351 828.642 788.18 838.463 767.923C872.054 706.871 933.562 669.002 965.364 606.697C991.007 548.805 997.437 483.166 992.09 420.169C986.061 344.027 981.322 267.8 974.777 191.839C974.739 178.465 966.349 168.804 952.115 170.576C943.062 173.577 939.596 185.536 940.347 195.504C939.553 258.256 940.152 321.071 939.667 383.863C939.874 394.707 939.471 410.956 924.911 409.826C911.543 409.241 911.739 394.122 911.99 383.954C911.902 331.984 912.659 280.099 912.185 228.14C902.294 229.798 883.742 231.425 886.293 246.849C887.849 292.636 893.224 338.31 895.276 384.244C899.535 399.334 881.108 408.791 870.901 398.663C862.918 363.033 865.873 325.765 860.634 289.595C851.51 291.068 839.213 292.431 837.259 304.304C835.421 340.856 844.169 376.867 846.483 413.127C846.912 427.661 823.054 429.74 820.464 416.367C814.043 379.236 809.25 341.277 809.741 303.475C811.089 277.347 835.144 261.513 858.088 259.927C852.135 225.928 879.393 197.045 911.14 198.715C912.822 180.125 918.241 159.579 935.358 150.411Z" fill="#1B5E1F" fill-opacity="0.368627"/>
<path d="M296.229 424.704C315.338 413.503 341.622 413.503 357.863 430.411C388.614 463.291 414.12 501.382 445.302 533.932C478.219 566.521 524.184 591.813 534.826 642.039C546.523 702.535 554.381 763.877 566.666 824.304C570.898 834.358 565.424 846.771 554.212 846.726C543.167 846.857 540.898 834.853 539.102 825.976C526.898 768.305 519.793 709.462 508.666 651.569C502.274 616.446 472.311 596.149 448.219 574.688C405.415 540.143 376.498 491.055 338.668 451.248C326.872 438.294 296.31 448.917 304.042 469.594C327.541 522.132 360.578 569.607 385.383 621.521C389.745 637.076 366.247 645.442 360.257 630.904C334.211 586.198 309.472 540.48 284.336 495.17C270.935 472.969 272.648 438.499 296.229 424.704Z" fill="#1B5E1F" fill-opacity="0.368627"/>
<path d="M867.342 424.915C891.352 407.876 931.174 418.323 940.706 448.541C947.165 469.668 937.475 490.754 927.109 508.384C903.611 549.01 881.941 590.858 857.968 631.115C851.939 645.284 829.246 637.111 832.843 621.861C857.646 570.107 890.281 522.718 914.1 470.47C922.833 449.838 892.593 438.215 880.226 450.798C842.173 490.464 813.326 539.683 770.636 574.472C747.416 595.28 718.503 614.439 710.717 647.699C697.68 710.792 691.691 775.392 676.173 837.9C672.468 853.017 646.575 846.237 650.961 831.26C662.647 768.219 671.788 704.62 683.708 641.617C692.174 601.157 725.353 575.984 754.004 551.267C798.004 515.563 825.736 462.915 867.342 424.915Z" fill="#1B5E1F" fill-opacity="0.368627"/>
<mask id="mask0_173_440" style="mask-type:luminance" maskUnits="userSpaceOnUse" x="90" y="-93" width="1001" height="1001">
<path d="M90 907.015H1090.07V-92.9999H90V907.015Z" fill="white"/>
</mask>
<g mask="url(#mask0_173_440)">
<path d="M676.962 261.765L676.959 261.766C672.044 262.499 668.196 266.598 667.606 271.786C667.02 276.975 669.845 281.906 674.46 283.828C676.725 284.751 678.102 286.211 678.944 288.482L678.945 288.485C680.542 292.884 679.71 299.508 676.924 305.353L676.921 305.359L676.918 305.366L676.907 305.388C676.706 305.782 675.085 308.972 671.895 311.476C668.606 314.058 663.661 315.899 656.98 313.269L656.978 313.269C652.225 311.383 646.833 313.166 643.994 317.599L643.993 317.6C642.094 320.542 641.654 324.132 642.589 327.363L642.623 327.482L642.599 327.602C642.092 330.08 639.842 336.183 633.04 338.552C630.856 339.315 627.431 339.665 623.993 339.264C620.559 338.863 617.014 337.701 614.665 335.346L614.52 335.201L614.519 334.996L614.323 301.98L614.318 301.262L614.993 301.507C618.787 302.886 622.335 303.445 625.509 303.445C627.602 303.445 629.55 303.231 631.287 302.885L631.289 302.885C644.236 300.339 653.924 289.759 657.744 280.39C660.13 274.529 657.521 267.78 651.949 265.292C646.382 262.811 639.934 265.505 637.543 271.35C636.996 272.692 635.703 274.665 633.927 276.425C632.15 278.186 629.838 279.785 627.232 280.297C623.213 281.092 618.852 278.861 614.296 274.175L614.155 274.031L614.154 273.829L613.795 214.726L613.795 214.72L614.055 170.912L614.057 170.595L614.345 170.461C616.09 169.651 618.392 169.247 620.778 169.282C623.168 169.317 625.682 169.793 627.858 170.778L627.86 170.779C631.594 172.488 633.414 177.364 633.288 184.195V184.195C633.21 188.236 635.174 192.026 638.443 194.167C641.73 196.298 645.822 196.49 649.239 194.658L649.241 194.657C654.535 191.839 658.79 192.125 661.745 193.163C664.63 194.176 666.239 195.892 666.363 196.036C670.185 200.53 672.105 208.487 666.276 217.329L666.275 217.329C664.068 220.675 663.722 225.007 665.368 228.694L665.368 228.695C667.012 232.393 670.383 234.893 674.248 235.278L674.25 235.278C678.671 235.736 682.36 240.2 683.191 245.686C683.946 250.579 682.99 255.679 680.641 259.013L680.64 259.015C680.328 259.453 679.843 260.066 679.229 260.603C678.621 261.136 677.848 261.629 676.962 261.765ZM680.232 258.725C679.633 259.567 678.394 261.038 676.885 261.271C671.733 262.039 667.723 266.33 667.109 271.73L680.232 258.725ZM563.037 327.601L563.012 327.481L563.046 327.363C563.981 324.133 563.536 320.542 561.642 317.6L561.642 317.599C558.796 313.166 553.409 311.383 548.65 313.269L548.649 313.269C541.969 315.905 537.024 314.064 533.737 311.48C530.542 308.969 528.922 305.769 528.727 305.384C528.723 305.377 528.719 305.37 528.717 305.365L528.717 305.365L528.711 305.353C525.919 299.509 525.077 292.884 526.684 288.484L526.685 288.482C527.528 286.21 528.911 284.751 531.175 283.828C535.79 281.905 538.614 276.975 538.024 271.786L538.024 271.786C537.438 266.598 533.584 262.499 528.669 261.766L528.666 261.765C527.783 261.628 527.012 261.136 526.404 260.603C525.792 260.065 525.307 259.453 524.995 259.014L524.994 259.013C522.645 255.678 521.689 250.579 522.426 245.698L522.427 245.697C523.269 240.2 526.964 235.736 531.38 235.278L531.382 235.278C535.247 234.893 538.622 232.393 540.267 228.694L540.268 228.694C541.912 225.008 541.561 220.675 539.36 217.329C533.523 208.487 535.451 200.53 539.271 196.036L539.271 196.036C539.433 195.85 541.036 194.169 543.877 193.169C546.831 192.129 551.089 191.839 556.389 194.657L556.39 194.657C559.823 196.491 563.916 196.298 567.193 194.167C570.455 192.025 572.425 188.235 572.341 184.196L572.341 184.195C572.215 177.364 574.042 172.489 577.757 170.779L577.761 170.778C579.944 169.793 582.462 169.317 584.853 169.282C587.24 169.247 589.541 169.651 591.284 170.461L591.571 170.595L591.573 170.912L591.841 214.72L591.841 214.726L591.785 223.384L591.784 223.504L591.728 223.612C591.652 223.757 591.583 223.879 591.519 223.993C591.415 224.176 591.325 224.336 591.242 224.53C588.655 231.1 585.279 235.035 581.13 235.89L581.13 235.89C578.541 236.42 575.823 235.842 573.541 234.905C571.26 233.969 569.347 232.649 568.355 231.614C564.07 227.137 557.129 227.137 552.837 231.614C548.555 236.104 548.555 243.399 552.854 247.889C558.594 253.884 568.413 259.095 579.028 259.095C581.138 259.095 583.273 258.883 585.416 258.435L585.416 258.435C587.122 258.078 588.969 257.492 590.901 256.705L591.594 256.423L591.59 257.171L591.116 334.996L591.115 335.201L590.97 335.346C588.621 337.701 585.074 338.863 581.639 339.264C578.201 339.665 574.777 339.315 572.595 338.552C565.794 336.183 563.536 330.081 563.037 327.601ZM696.961 274.948L696.786 274.65L697.004 274.381C697.452 273.829 697.881 273.254 698.307 272.662C704.171 264.356 706.571 253.214 704.88 242.079C703.322 231.817 697.944 223.141 690.523 217.824L690.239 217.621L690.332 217.285C693.899 204.376 691.324 190.819 682.763 180.753L682.762 180.753C678.245 175.436 667.573 168.186 653.764 169.576L653.359 169.617L653.237 169.229C649.364 156.909 640.873 151.634 636.597 149.692C626.332 145.033 613.065 144.959 603.065 150.728L602.815 150.872L602.565 150.728C592.571 144.96 579.288 145.05 569.023 149.692C564.761 151.634 556.27 156.909 552.399 169.246L552.276 169.636L551.869 169.593C538.045 168.142 527.402 175.434 522.873 180.753C514.31 190.819 511.729 204.376 515.296 217.285L515.389 217.621L515.106 217.824C507.686 223.141 502.308 231.817 500.738 242.079C499.058 253.214 501.464 264.356 507.327 272.662C507.756 273.256 508.177 273.83 508.628 274.379L508.849 274.649L508.673 274.949C507.698 276.61 506.863 278.39 506.177 280.284L506.176 280.285C502.383 290.668 503.447 303.884 509.085 315.646L509.085 315.647C514.965 327.932 527.439 337.809 542.679 337.534L543.033 337.527L543.157 337.858C545.665 344.567 551.755 355.51 565.666 360.364C569.411 361.668 573.99 362.444 578.859 362.444C586.839 362.444 595.493 360.284 602.516 355.047L602.815 354.825L603.114 355.047C610.143 360.284 618.792 362.456 626.776 362.456C631.637 362.456 636.223 361.668 639.981 360.364C653.881 355.51 659.969 344.567 662.479 337.858L662.6 337.534H662.947H663.251C678.267 337.534 690.715 327.854 696.55 315.647C702.172 303.884 703.245 290.668 699.458 280.285L699.457 280.284C698.771 278.39 697.93 276.611 696.961 274.948Z" fill="#505050" fill-opacity="0.21" stroke="white"/>
<path d="M676.962 261.765L676.959 261.766C672.044 262.499 668.196 266.598 667.606 271.786C667.02 276.975 669.845 281.906 674.46 283.828C676.725 284.751 678.102 286.211 678.944 288.482L678.945 288.485C680.542 292.884 679.71 299.508 676.924 305.353L676.921 305.359L676.918 305.366L676.907 305.388C676.706 305.782 675.085 308.972 671.895 311.476C668.606 314.058 663.661 315.899 656.98 313.269L656.978 313.269C652.225 311.383 646.833 313.166 643.994 317.599L643.993 317.6C642.094 320.542 641.654 324.132 642.589 327.363L642.623 327.482L642.599 327.602C642.092 330.08 639.842 336.183 633.04 338.552C630.856 339.315 627.431 339.665 623.993 339.264C620.559 338.863 617.014 337.701 614.665 335.346L614.52 335.201L614.519 334.996L614.323 301.98L614.318 301.262L614.993 301.507C618.787 302.886 622.335 303.445 625.509 303.445C627.602 303.445 629.55 303.231 631.287 302.885L631.289 302.885C644.236 300.339 653.924 289.759 657.744 280.39C660.13 274.529 657.521 267.78 651.949 265.292C646.382 262.811 639.934 265.505 637.543 271.35C636.996 272.692 635.703 274.665 633.927 276.425C632.15 278.186 629.838 279.785 627.232 280.297C623.213 281.092 618.852 278.861 614.296 274.175L614.155 274.031L614.154 273.829L613.795 214.726L613.795 214.72L614.055 170.912L614.057 170.595L614.345 170.461C616.09 169.651 618.392 169.247 620.778 169.282C623.168 169.317 625.682 169.793 627.858 170.778L627.86 170.779C631.594 172.488 633.414 177.364 633.288 184.195V184.195C633.21 188.236 635.174 192.026 638.443 194.167C641.73 196.298 645.822 196.49 649.239 194.658L649.241 194.657C654.535 191.839 658.79 192.125 661.745 193.163C664.63 194.176 666.239 195.892 666.363 196.036C670.185 200.53 672.105 208.487 666.276 217.329L666.275 217.329C664.068 220.675 663.722 225.007 665.368 228.694L665.368 228.695C667.012 232.393 670.383 234.893 674.248 235.278L674.25 235.278C678.671 235.736 682.36 240.2 683.191 245.686C683.946 250.579 682.99 255.679 680.641 259.013L680.64 259.015C680.328 259.453 679.843 260.066 679.229 260.603C678.621 261.136 677.848 261.629 676.962 261.765ZM680.232 258.725C679.633 259.567 678.394 261.038 676.885 261.271C671.733 262.039 667.723 266.33 667.109 271.73L680.232 258.725ZM563.037 327.601L563.012 327.481L563.046 327.363C563.981 324.133 563.536 320.542 561.642 317.6L561.642 317.599C558.796 313.166 553.409 311.383 548.65 313.269L548.649 313.269C541.969 315.905 537.024 314.064 533.737 311.48C530.542 308.969 528.922 305.769 528.727 305.384C528.723 305.377 528.719 305.37 528.717 305.365L528.717 305.365L528.711 305.353C525.919 299.509 525.077 292.884 526.684 288.484L526.685 288.482C527.528 286.21 528.911 284.751 531.175 283.828C535.79 281.905 538.614 276.975 538.024 271.786L538.024 271.786C537.438 266.598 533.584 262.499 528.669 261.766L528.666 261.765C527.783 261.628 527.012 261.136 526.404 260.603C525.792 260.065 525.307 259.453 524.995 259.014L524.994 259.013C522.645 255.678 521.689 250.579 522.426 245.698L522.427 245.697C523.269 240.2 526.964 235.736 531.38 235.278L531.382 235.278C535.247 234.893 538.622 232.393 540.267 228.694L540.268 228.694C541.912 225.008 541.561 220.675 539.36 217.329C533.523 208.487 535.451 200.53 539.271 196.036L539.271 196.036C539.433 195.85 541.036 194.169 543.877 193.169C546.831 192.129 551.089 191.839 556.389 194.657L556.39 194.657C559.823 196.491 563.916 196.298 567.193 194.167C570.455 192.025 572.425 188.235 572.341 184.196L572.341 184.195C572.215 177.364 574.042 172.489 577.757 170.779L577.761 170.778C579.944 169.793 582.462 169.317 584.853 169.282C587.24 169.247 589.541 169.651 591.284 170.461L591.571 170.595L591.573 170.912L591.841 214.72L591.841 214.726L591.785 223.384L591.784 223.504L591.728 223.612C591.652 223.757 591.583 223.879 591.519 223.993C591.415 224.176 591.325 224.336 591.242 224.53C588.655 231.1 585.279 235.035 581.13 235.89L581.13 235.89C578.541 236.42 575.823 235.842 573.541 234.905C571.26 233.969 569.347 232.649 568.355 231.614C564.07 227.137 557.129 227.137 552.837 231.614C548.555 236.104 548.555 243.399 552.854 247.889C558.594 253.884 568.413 259.095 579.028 259.095C581.138 259.095 583.273 258.883 585.416 258.435L585.416 258.435C587.122 258.078 588.969 257.492 590.901 256.705L591.594 256.423L591.59 257.171L591.116 334.996L591.115 335.201L590.97 335.346C588.621 337.701 585.074 338.863 581.639 339.264C578.201 339.665 574.777 339.315 572.595 338.552C565.794 336.183 563.536 330.081 563.037 327.601ZM696.961 274.948L696.786 274.65L697.004 274.381C697.452 273.829 697.881 273.254 698.307 272.662C704.171 264.356 706.571 253.214 704.88 242.079C703.322 231.817 697.944 223.141 690.523 217.824L690.239 217.621L690.332 217.285C693.899 204.376 691.324 190.819 682.763 180.753L682.762 180.753C678.245 175.436 667.573 168.186 653.764 169.576L653.359 169.617L653.237 169.229C649.364 156.909 640.873 151.634 636.597 149.692C626.332 145.033 613.065 144.959 603.065 150.728L602.815 150.872L602.565 150.728C592.571 144.96 579.288 145.05 569.023 149.692C564.761 151.634 556.27 156.909 552.399 169.246L552.276 169.636L551.869 169.593C538.045 168.142 527.402 175.434 522.873 180.753C514.31 190.819 511.729 204.376 515.296 217.285L515.389 217.621L515.106 217.824C507.686 223.141 502.308 231.817 500.738 242.079C499.058 253.214 501.464 264.356 507.327 272.662C507.756 273.256 508.177 273.83 508.628 274.379L508.849 274.649L508.673 274.949C507.698 276.61 506.863 278.39 506.177 280.284L506.176 280.285C502.383 290.668 503.447 303.884 509.085 315.646L509.085 315.647C514.965 327.932 527.439 337.809 542.679 337.534L543.033 337.527L543.157 337.858C545.665 344.567 551.755 355.51 565.666 360.364C569.411 361.668 573.99 362.444 578.859 362.444C586.839 362.444 595.493 360.284 602.516 355.047L602.815 354.825L603.114 355.047C610.143 360.284 618.792 362.456 626.776 362.456C631.637 362.456 636.223 361.668 639.981 360.364C653.881 355.51 659.969 344.567 662.479 337.858L662.6 337.534H662.947H663.251C678.267 337.534 690.715 327.854 696.55 315.647C702.172 303.884 703.245 290.668 699.458 280.285L699.457 280.284C698.771 278.39 697.93 276.611 696.961 274.948Z" fill="#505050" fill-opacity="0.21" stroke="white"/>
<path d="M719.983 368.868C719.983 374.903 715.288 379.808 709.509 379.808H494.537C488.753 379.808 484.058 374.903 484.058 368.868V144.305C484.058 138.279 488.753 133.363 494.537 133.363H709.509C715.288 133.363 719.983 138.279 719.983 144.305V368.868ZM792.608 319.807C786.503 311.19 774.875 309.36 766.627 315.714C764.859 317.085 763.455 318.743 762.297 320.546H742.948V268.575H768.216C774.555 268.575 779.691 263.205 779.691 256.589C779.691 249.967 774.555 244.597 768.216 244.597H742.948V192.626H768.216C774.555 192.626 779.691 187.254 779.691 180.634C779.691 174.001 774.555 168.631 768.216 168.631H742.948V144.305C742.948 125.043 727.949 109.367 709.509 109.367H686.218V81.0692C686.218 74.4476 681.064 69.0831 674.727 69.0831C668.393 69.0831 663.251 74.4476 663.251 81.0692V109.367H613.501V92.2319C621.602 85.843 623.305 73.8117 617.26 65.2578C611.155 56.624 599.528 54.7936 591.281 61.165C583.021 67.5247 581.269 79.6768 587.368 88.3049C588.287 89.6115 589.386 90.7202 590.545 91.7081V109.367H540.79V81.0692C540.79 74.4476 535.653 69.0831 529.314 69.0831C522.965 69.0831 517.823 74.4476 517.823 81.0692V109.367H494.537C476.092 109.367 461.092 125.043 461.092 144.305V168.631H445.189C439.002 160.423 427.68 158.741 419.584 164.981C411.324 171.353 409.573 183.503 415.671 192.132C421.761 200.742 433.387 202.578 441.647 196.219C443.002 195.172 444.111 193.933 445.101 192.626H461.092V244.597H433.958C427.621 244.597 422.484 249.967 422.484 256.589C422.484 263.205 427.621 268.575 433.958 268.575H461.092V320.546H433.958C427.621 320.546 422.484 325.916 422.484 332.538C422.484 339.171 427.621 344.542 433.958 344.542H461.092V368.868C461.092 388.135 476.092 403.803 494.537 403.803H517.823V421.32C517.752 421.378 517.682 421.406 517.617 421.451C509.352 427.822 507.6 439.974 513.689 448.585C519.787 457.212 531.415 459.048 539.68 452.677C547.923 446.317 549.679 434.166 543.591 425.538C542.754 424.373 541.807 423.344 540.79 422.423V403.803H590.545V430.863C590.545 437.502 595.682 442.867 602.02 442.867C608.359 442.867 613.501 437.502 613.501 430.863V403.803H663.251V430.863C663.251 437.502 668.393 442.867 674.727 442.867C681.064 442.867 686.218 437.502 686.218 430.863V403.803H709.509C727.949 403.803 742.948 388.135 742.948 368.868V344.542H764.163C770.512 351.623 781.029 352.851 788.69 346.94C796.938 340.58 798.69 328.435 792.608 319.807Z" fill="#F3F5F5" fill-opacity="0.25"/>
</g>
</g>
<defs>
<clipPath id="clip0_173_440">
<rect width="1000" height="1000" fill="white" transform="translate(100)"/>
</clipPath>
</defs>
</svg>
