<svg width="385" height="400" viewBox="0 0 385 400" fill="none" xmlns="http://www.w3.org/2000/svg">
<path d="M160.595 281.552C153.794 279.183 151.536 273.081 151.037 270.601L151.012 270.481L151.046 270.363C151.981 267.133 151.536 263.542 149.642 260.6L149.642 260.599C146.796 256.166 141.409 254.383 136.65 256.269L136.649 256.269C129.969 258.905 125.024 257.064 121.737 254.48C118.542 251.97 116.922 248.769 116.727 248.384C116.723 248.377 116.719 248.37 116.717 248.365L116.717 248.365L116.711 248.353C113.919 242.509 113.077 235.884 114.684 231.484L114.685 231.482C115.528 229.21 116.911 227.751 119.175 226.828C123.79 224.905 126.614 219.975 126.024 214.786L126.024 214.786C125.438 209.598 121.584 205.499 116.669 204.766L116.666 204.765C115.783 204.628 115.012 204.136 114.404 203.603C113.792 203.065 113.307 202.453 112.995 202.014L112.994 202.013C110.645 198.678 109.689 193.579 110.426 188.698L110.427 188.697C111.269 183.2 114.964 178.736 119.38 178.278L119.382 178.278C123.247 177.893 126.622 175.393 128.267 171.694L128.268 171.694C129.912 168.008 129.561 163.675 127.36 160.329C121.523 151.487 123.451 143.53 127.271 139.036L127.271 139.036C127.433 138.85 129.036 137.169 131.877 136.169C134.831 135.129 139.089 134.839 144.389 137.657L144.39 137.657C147.824 139.491 151.916 139.298 155.193 137.167C158.455 135.025 160.425 131.235 160.341 127.196L160.341 127.195C160.215 120.364 162.042 115.489 165.757 113.779L165.761 113.778C167.944 112.793 170.462 112.317 172.853 112.282C175.24 112.247 177.541 112.651 179.284 113.461L179.571 113.595L179.573 113.912L179.841 157.72L179.841 157.726L179.785 166.384L179.784 166.504L179.728 166.612C179.652 166.757 179.583 166.879 179.519 166.993C179.415 167.176 179.324 167.336 179.242 167.53C176.655 174.1 173.279 178.035 169.13 178.89L169.13 178.89C166.541 179.42 163.823 178.842 161.541 177.905C159.26 176.969 157.347 175.649 156.355 174.614C152.07 170.137 145.129 170.137 140.837 174.614C136.555 179.104 136.555 186.399 140.854 190.889C146.594 196.884 156.413 202.095 167.028 202.095C169.138 202.095 171.273 201.883 173.416 201.435L173.416 201.435C175.122 201.078 176.969 200.492 178.901 199.705L179.594 199.423L179.59 200.171L179.116 277.996L179.115 278.201L178.97 278.346C176.621 280.701 173.074 281.863 169.639 282.264C166.201 282.665 162.777 282.315 160.595 281.552ZM160.595 281.552L160.76 281.08L160.595 281.552C160.595 281.552 160.595 281.552 160.595 281.552ZM264.962 204.765L264.959 204.766C260.044 205.499 256.196 209.598 255.606 214.786C255.02 219.975 257.845 224.905 262.46 226.828C264.724 227.751 266.102 229.211 266.944 231.482L266.945 231.485C268.542 235.884 267.71 242.508 264.924 248.353L264.921 248.359L264.918 248.366L264.907 248.388C264.707 248.782 263.085 251.972 259.895 254.476C256.606 257.058 251.661 258.899 244.98 256.269L244.978 256.269C240.225 254.383 234.833 256.166 231.994 260.599L231.993 260.6C230.094 263.542 229.654 267.132 230.589 270.363L230.623 270.482L230.599 270.602C230.092 273.08 227.842 279.183 221.04 281.552C218.856 282.315 215.431 282.665 211.993 282.264C208.559 281.863 205.014 280.701 202.665 278.346L202.52 278.201L202.519 277.996L202.323 244.98L202.318 244.262L202.993 244.507C206.787 245.886 210.335 246.445 213.509 246.445C215.602 246.445 217.55 246.231 219.287 245.885L219.289 245.885C232.236 243.339 241.924 232.759 245.744 223.39C248.13 217.529 245.521 210.78 239.949 208.292C234.382 205.811 227.934 208.505 225.544 214.349C224.996 215.692 223.704 217.665 221.927 219.425C220.15 221.186 217.838 222.785 215.232 223.297C211.212 224.092 206.852 221.861 202.296 217.175L202.155 217.031L202.154 216.829L201.795 157.726L201.795 157.72L202.055 113.912L202.057 113.595L202.345 113.461C204.09 112.651 206.392 112.247 208.778 112.282C211.168 112.317 213.682 112.793 215.858 113.778L215.86 113.779C219.594 115.488 221.414 120.364 221.288 127.195V127.195C221.21 131.236 223.174 135.026 226.443 137.167C229.73 139.298 233.822 139.49 237.239 137.658L237.241 137.657C242.535 134.839 246.79 135.125 249.745 136.163C252.63 137.176 254.238 138.891 254.363 139.036C258.185 143.53 260.105 151.487 254.276 160.329L254.275 160.329C252.068 163.675 251.722 168.007 253.368 171.694L253.368 171.695C255.012 175.393 258.383 177.894 262.248 178.278L262.25 178.278C266.671 178.736 270.36 183.2 271.191 188.686C271.946 193.579 270.99 198.679 268.641 202.013L268.64 202.015C268.328 202.453 267.843 203.066 267.229 203.603C266.621 204.136 265.848 204.629 264.962 204.765ZM284.961 217.948L284.786 217.65L285.004 217.381C285.452 216.829 285.882 216.253 286.307 215.661C292.171 207.355 294.571 196.214 292.88 185.079C291.322 174.817 285.944 166.141 278.523 160.824L278.239 160.621L278.332 160.285C281.899 147.376 279.324 133.819 270.763 123.753L270.762 123.753C266.245 118.436 255.573 111.186 241.764 112.576L241.359 112.617L241.237 112.229C237.364 99.9091 228.873 94.6341 224.597 92.6922C214.332 88.0329 201.065 87.9594 191.065 93.7278L190.815 93.872L190.565 93.7278C180.571 87.9599 167.288 88.05 157.023 92.6919C152.761 94.6338 144.27 99.9088 140.399 112.246L140.276 112.636L139.869 112.593C126.045 111.142 115.402 118.434 110.873 123.753C102.31 133.819 99.7295 147.376 103.296 160.285L103.389 160.621L103.106 160.824C95.6859 166.141 90.3083 174.817 88.7382 185.079C87.0576 196.214 89.4644 207.356 95.3267 215.661C95.756 216.256 96.1768 216.83 96.628 217.379L96.8494 217.649L96.6729 217.949C95.6984 219.61 94.863 221.39 94.1767 223.284L94.1762 223.285C90.3833 233.668 91.447 246.884 97.0852 258.646L97.0854 258.647C102.965 270.932 115.439 280.809 130.679 280.534L131.033 280.527L131.157 280.858C133.665 287.567 139.755 298.51 153.666 303.364C157.411 304.668 161.99 305.444 166.859 305.444C174.839 305.444 183.493 303.284 190.516 298.047L190.815 297.825L191.114 298.047C198.143 303.284 206.792 305.456 214.776 305.456C219.637 305.456 224.223 304.668 227.981 303.364C241.881 298.51 247.969 287.567 250.479 280.858L250.6 280.534H250.947H251.251C266.267 280.534 278.715 270.854 284.55 258.647C290.172 246.884 291.245 233.668 287.458 223.285L287.457 223.284C286.771 221.39 285.93 219.611 284.961 217.948Z" fill="#FBA7D4" stroke="white"/>
<path d="M307.983 311.868C307.983 317.903 303.288 322.808 297.509 322.808H82.5373C76.7528 322.808 72.0575 317.903 72.0575 311.868V87.3045C72.0575 81.2794 76.7528 76.363 82.5373 76.363H297.509C303.288 76.363 307.983 81.2794 307.983 87.3045V311.868ZM380.608 262.807C374.503 254.19 362.875 252.36 354.627 258.714C352.859 260.085 351.455 261.743 350.297 263.546H330.948V211.575H356.216C362.555 211.575 367.691 206.205 367.691 199.589C367.691 192.967 362.555 187.597 356.216 187.597H330.948V135.626H356.216C362.555 135.626 367.691 130.254 367.691 123.634C367.691 117.001 362.555 111.631 356.216 111.631H330.948V87.3045C330.948 68.0434 315.949 52.3673 297.509 52.3673H274.218V24.0692C274.218 17.4476 269.064 12.0831 262.727 12.0831C256.393 12.0831 251.251 17.4476 251.251 24.0692V52.3673H201.501V35.2319C209.602 28.8431 211.305 16.8117 205.26 8.25786C199.155 -0.376052 187.528 -2.20641 179.281 4.16499C171.021 10.5247 169.269 22.6768 175.368 31.3049C176.287 32.6115 177.386 33.7202 178.545 34.7081V52.3673H128.79V24.0692C128.79 17.4476 123.653 12.0831 117.314 12.0831C110.965 12.0831 105.823 17.4476 105.823 24.0692V52.3673H82.5373C64.0918 52.3673 49.0922 68.0434 49.0922 87.3045V111.631H33.1886C27.0015 103.423 15.6804 101.741 7.58378 107.981C-0.675838 114.353 -2.42666 126.503 3.67125 135.132C9.7608 143.742 21.3869 145.578 29.6466 139.219C31.0018 138.172 32.1105 136.933 33.1008 135.626H49.0922V187.597H21.958C15.6205 187.597 10.4837 192.967 10.4837 199.589C10.4837 206.205 15.6205 211.575 21.958 211.575H49.0922V263.546H21.958C15.6205 263.546 10.4837 268.916 10.4837 275.538C10.4837 282.171 15.6205 287.542 21.958 287.542H49.0922V311.868C49.0922 331.135 64.0918 346.803 82.5373 346.803H105.823V364.32C105.752 364.378 105.682 364.406 105.617 364.451C97.3517 370.822 95.5995 382.974 101.689 391.585C107.787 400.212 119.415 402.048 127.68 395.677C135.923 389.317 137.679 377.166 131.591 368.538C130.754 367.373 129.807 366.344 128.79 365.423V346.803H178.545V373.863C178.545 380.502 183.682 385.867 190.02 385.867C196.359 385.867 201.501 380.502 201.501 373.863V346.803H251.251V373.863C251.251 380.502 256.393 385.867 262.727 385.867C269.064 385.867 274.218 380.502 274.218 373.863V346.803H297.509C315.949 346.803 330.948 331.135 330.948 311.868V287.542H352.163C358.512 294.623 369.029 295.851 376.69 289.94C384.938 283.58 386.69 271.435 380.608 262.807Z" fill="#4AA1B2"/>
</svg>
