<svg width="866" height="647" viewBox="0 0 866 647" fill="none" xmlns="http://www.w3.org/2000/svg">
<path d="M19.8001 41.4461C21.1482 12.0495 59.2573 -9.78815 87.9518 4.53879C107.431 12.3171 114.128 32.2159 115.721 50.1437C149.066 48.4978 177.628 75.1392 171.425 106.291C195.602 107.975 221.063 122.469 222.274 146.837C222.862 180.138 217.669 213.375 211.98 246.216C213.281 261.427 183.696 262.765 183.741 247.282C186.21 213.794 195.309 180.566 193.287 146.805C190.991 135.954 178.212 135.071 168.706 133.612C164.301 165.126 164.861 197.161 159.623 228.549C158.526 241.156 133.899 240.701 132.482 227.75C133.562 183.054 140.348 138.672 141.857 93.9929C144.531 80.0366 124.851 78.7775 114.671 76.9323C113.584 129.023 116.104 181.224 114.081 233.18C113.922 246.827 87.6608 247.674 86.8272 233.797C84.2211 171.669 86.5288 109.354 85.141 47.1597C86.3124 38.2628 79.572 31.2123 72.0361 26.8474C58.0859 24.2395 47.9059 36.2663 48.2027 48.0428C41.708 125.343 34.5844 202.645 29.0145 279.977C28.0948 347.466 41.2111 421.626 95.1616 471.335C143.872 518.555 202.885 564.075 216.161 631.733C219.308 643.639 199.915 650.931 192.003 641.931C179.56 617.856 173.561 590.45 154.595 569.522C115.636 524.001 61.0576 489.811 32.6993 436.836C3.84466 379.967 -4.07882 315.436 1.82811 253.267C8.02636 182.667 13.6019 112.046 19.8001 41.4461Z" fill="#3B7738"/>
<path d="M775.177 5.61001C802.37 -9.95066 841.152 8.86161 845.044 37.458C849.618 76.1261 851.493 115.024 855.218 153.777C859.079 219.428 872.475 285.647 860.587 351.307C853.349 391.504 840.61 432.127 813.967 465.313C783.221 504.828 739.879 534.156 708.128 572.893C691.122 593.331 685.507 619.046 673.819 641.846C665.775 650.998 646.677 643.989 649.191 632.145C653.87 611.609 663.13 592.138 673.441 573.509C708.711 517.362 773.292 482.535 806.683 425.237C833.606 371.996 840.358 311.63 834.744 253.695C828.413 183.67 823.438 113.567 816.566 43.7095C816.526 31.4098 807.717 22.5248 792.772 24.1546C783.266 26.9151 779.628 37.9129 780.416 47.0801C779.582 104.791 780.211 162.559 779.702 220.305C779.919 230.278 779.496 245.222 764.209 244.182C750.173 243.644 750.379 229.74 750.642 220.39C750.55 172.594 751.344 124.878 750.847 77.0935C740.462 78.619 720.982 80.115 723.662 94.3001C725.295 136.408 730.939 178.412 733.093 220.656C737.565 234.533 718.217 243.231 707.5 233.917C699.119 201.149 702.221 166.875 696.721 133.612C687.14 134.966 674.23 136.22 672.178 147.139C670.247 180.754 679.433 213.872 681.862 247.219C682.313 260.585 657.262 262.497 654.544 250.198C647.802 216.05 642.77 181.141 643.285 146.376C644.7 122.348 669.956 107.785 694.047 106.327C687.797 75.0597 716.417 48.4971 749.75 50.0333C751.515 32.9365 757.205 14.0413 775.177 5.61001Z" fill="#3B7738"/>
<path d="M104.119 257.866C124.182 247.564 151.78 247.564 168.832 263.114C201.12 293.352 227.9 328.384 260.639 358.318C295.201 388.289 343.461 411.549 354.636 457.74C366.918 513.375 375.167 569.789 388.066 625.361C392.51 634.607 386.763 646.022 374.99 645.981C363.393 646.101 361.011 635.062 359.126 626.898C346.312 573.861 338.852 519.745 327.168 466.504C320.457 434.203 288.997 415.536 263.702 395.799C218.759 364.03 188.398 318.886 148.678 282.277C136.293 270.364 104.204 280.133 112.322 299.149C136.995 347.466 171.682 391.127 197.727 438.87C202.307 453.175 177.634 460.869 171.346 447.499C143.998 406.385 118.024 364.34 91.6312 322.67C77.5611 302.253 79.3599 270.553 104.119 257.866Z" fill="#3B7738"/>
<path d="M703.764 258.06C728.973 242.39 770.784 251.997 780.793 279.788C787.575 299.217 777.4 318.609 766.517 334.822C741.844 372.184 719.092 410.671 693.922 447.693C687.591 460.723 663.765 453.207 667.541 439.183C693.584 391.587 727.849 348.005 752.858 299.954C762.027 280.98 730.276 270.291 717.291 281.863C677.337 318.342 647.049 363.607 602.227 395.601C577.846 414.737 547.489 432.357 539.314 462.944C525.626 520.968 519.337 580.378 503.044 637.864C499.154 651.767 471.967 645.531 476.573 631.758C488.842 573.781 498.44 515.292 510.956 457.351C519.845 420.142 554.681 396.991 584.764 374.26C630.962 341.424 660.079 293.007 703.764 258.06Z" fill="#3B7738"/>
</svg>
